HIERARCHY
ROOT Hips
{
	OFFSET 0.00000 0.00000 0.00000
	CHANNELS 6 Xposition Yposition Zposition Zrotation Yrotation Xrotation 
	JOINT LHipJoint
	{
		OFFSET 0 0 0
		CHANNELS 3 Zrotation Yrotation Xrotation
		JOINT LeftHip
		{
			OFFSET 1.28366 -1.58472 0.87544
			CHANNELS 3 Zrotation Yrotation Xrotation
			JOINT LeftKnee
			{
				OFFSET 2.18587 -6.00562 0.00000
				CHANNELS 3 Zrotation Yrotation Xrotation
				JOINT LeftAnkle
				{
					OFFSET 2.39085 -6.56880 0.00000
					CHANNELS 3 Zrotation Yrotation Xrotation
					JOINT LeftToe
					{
						OFFSET 0.12003 -0.32979 2.03101
						CHANNELS 3 Zrotation Yrotation Xrotation
						End Site
						{
							OFFSET 0.00000 -0.00000 1.04074
						}
					}
				}
			}
		}
	}
	JOINT RHipJoint
	{
		OFFSET 0 0 0
		CHANNELS 3 Zrotation Yrotation Xrotation
		JOINT RightHip
		{
			OFFSET -1.21795 -1.58472 0.87544
			CHANNELS 3 Zrotation Yrotation Xrotation
			JOINT RightKnee
			{
				OFFSET -2.22714 -6.11902 0.00000
				CHANNELS 3 Zrotation Yrotation Xrotation
				JOINT RightAnkle
				{
					OFFSET -2.40306 -6.60235 0.00000
					CHANNELS 3 Zrotation Yrotation Xrotation
					JOINT RightToe
					{
						OFFSET -0.15519 -0.42640 1.91430
						CHANNELS 3 Zrotation Yrotation Xrotation
						End Site
						{
							OFFSET -0.00000 -0.00000 0.99082
						}
					}
				}
			}
		}
	}
	JOINT lowerback
	{
		OFFSET 0 0 0
		CHANNELS 3 Zrotation Yrotation Xrotation
		JOINT Chest
		{
			OFFSET 0.01180 1.76430 -0.06387
			CHANNELS 3 Zrotation Yrotation Xrotation
			JOINT Chest2
			{
				OFFSET -0.00388 1.74651 0.09536
				CHANNELS 3 Zrotation Yrotation Xrotation
				JOINT lowerneck
				{
					OFFSET 0 0 0
					CHANNELS 3 Zrotation Yrotation Xrotation
					JOINT Neck
					{
						OFFSET 0.04111 1.46174 0.14397
						CHANNELS 3 Zrotation Yrotation Xrotation
						JOINT Head
						{
							OFFSET 0.00502 1.44580 -0.31711
							CHANNELS 3 Zrotation Yrotation Xrotation
							End Site
							{
								OFFSET -0.00395 1.49251 -0.12327
							}
						}
					}
				}
				JOINT LeftCollar
				{
					OFFSET 0 0 0
					CHANNELS 3 Zrotation Yrotation Xrotation
					JOINT LeftShoulder
					{
						OFFSET 2.70917 1.34870 -0.15417
CHANNELS 3 Zrotation Xrotation Yrotation
						JOINT LeftElbow
						{
OFFSET 0 -4.466100 -0.000000
CHANNELS 3 Zrotation Xrotation Yrotation
							JOINT LeftWrist
							{
OFFSET 0 -3.414140 0.000000
CHANNELS 3 Zrotation Xrotation Yrotation
								JOINT lhand
								{
									OFFSET 0 0 0
CHANNELS 3 Zrotation Xrotation Yrotation
									JOINT LFingers
									{
OFFSET 0 -0.328300 0.000000
CHANNELS 3 Zrotation Xrotation Yrotation
										End Site
										{
OFFSET 0 -0.264680 0.000000
										}
									}
								}
								JOINT LThumb
								{
OFFSET 0 0.000000 0.000000
CHANNELS 3 Zrotation Xrotation Yrotation
									End Site
									{
OFFSET 0 -0.268720 0.268720
									}
								}
							}
						}
					}
				}
				JOINT RightCollar
				{
					OFFSET 0 0 0
					CHANNELS 3 Zrotation Yrotation Xrotation
					JOINT RightShoulder
					{
						OFFSET -3.06316 1.13725 -0.10883
CHANNELS 3 Zrotation Xrotation Yrotation
						JOINT RightElbow
						{
OFFSET 0 -4.404310 0.000000
CHANNELS 3 Zrotation Xrotation Yrotation
							JOINT RightWrist
							{
OFFSET 0 -3.046880 0.000000
CHANNELS 3 Zrotation Xrotation Yrotation
								JOINT rhand
								{
									OFFSET 0 0 0
CHANNELS 3 Zrotation Xrotation Yrotation
									JOINT RFingers
									{
OFFSET 0 -0.500490 0.000000
CHANNELS 3 Zrotation Xrotation Yrotation
										End Site
										{
OFFSET 0 -0.403510 0.000000
										}
									}
								}
								JOINT RThumb
								{
OFFSET 0 0.000000 0.000000
CHANNELS 3 Zrotation Xrotation Yrotation
									End Site
									{
OFFSET 0 -0.409670 0.409670
									}
								}
							}
						}
					}
				}
			}
		}
	}
}
MOTION
Frames: 5
Frame Time: 0.008333333333333333
8.100000 12.271400 1.873700 -84.078600 -84.359800 86.741700 0.000000 0.000000 0.000000 -4.276400 30.476800 -52.932000 20.683700 19.988800 91.999500 3.310500 -14.010400 -32.991400 0.007300 0.553400 1.520700 0.000000 0.000000 0.000000 13.819700 -32.982200 -53.995700 -19.666100 -19.997300 89.023800 -3.508900 7.016100 -34.148500 -0.076400 1.783500 -4.907700 0.072300 0.645200 6.999000 0.630300 0.877900 -5.298400 0.500800 0.423800 -9.568600 -1.714500 -4.674100 -17.682700 2.136500 -6.948800 23.714700 0.032100 -3.182400 10.689500 0.000000 0.000000 0.000000 92.267600 3.553200 -34.481100 17.500900 -27.513300 4.316200 0.974000 -11.896100 -8.649900 0.000000 0.000000 0.000000 -7.125000 0.000000 0.000000 -21.906900 37.722400 -4.168700 0.000000 0.000000 0.000000 -79.862800 3.768600 31.946200 -16.642000 -26.383500 -3.926900 -3.394400 -11.815700 -9.130200 0.000000 0.000000 0.000000 7.125000 0.000000 -0.000000 16.755800 20.974200 10.079900
8.104199 12.279196 1.891494 -81.638593 -84.336397 84.539813 0.000000 0.000000 0.000000 -4.557390 29.661565 -53.075771 20.660119 19.989499 91.930456 3.372979 -13.498551 -33.275003 0.007499 0.559183 1.536652 0.000000 0.000000 0.000000 13.890083 -32.841848 -54.167647 -19.613423 -19.996401 88.869567 -3.505400 6.850889 -34.149091 -0.070902 1.717421 -4.725358 0.178878 0.728472 7.027804 0.686585 1.006258 -5.350680 0.481103 0.480581 -9.643879 -1.413564 -4.343089 -17.891202 2.298208 -6.668564 24.380817 0.066571 -3.002146 10.966232 0.000000 0.000000 0.000000 92.034074 3.374146 -34.425438 17.599540 -27.641422 4.361872 1.105914 -11.569679 -8.470463 0.000000 0.000000 0.000000 -7.125000 0.000000 0.000000 -21.748607 37.565460 -4.224268 0.000000 0.000000 0.000000 -79.493417 3.851292 31.101207 -16.582653 -26.304271 -3.900624 -3.660128 -11.950787 -9.224867 0.000000 0.000000 0.000000 7.125000 0.000000 0.000000 16.561353 20.878633 9.990022
8.104600 12.297885 1.911486 -79.086717 -84.375959 82.230657 0.000000 0.000000 0.000000 -4.960390 28.936352 -53.120563 20.560377 19.992498 91.638626 3.434163 -13.083190 -33.562127 0.008800 0.604987 1.662563 0.000000 0.000000 0.000000 13.916407 -32.676216 -54.272950 -19.513475 -19.994302 88.577321 -3.505902 6.459787 -34.198872 -0.068700 1.690602 -4.651406 0.209891 0.810249 6.986439 0.702700 1.120131 -5.398089 0.463814 0.533867 -9.672211 -1.252616 -4.098168 -17.814901 2.598125 -6.497828 24.797140 0.169141 -2.873991 11.110502 0.000000 0.000000 0.000000 91.858319 3.273674 -34.282322 17.861327 -27.979278 4.484019 1.068189 -11.588372 -8.385773 0.000000 0.000000 0.000000 -7.125000 0.000000 0.000000 -21.754701 37.484074 -4.272115 0.000000 0.000000 0.000000 -79.078506 3.846999 29.917300 -16.373418 -26.024458 -3.808352 -4.010204 -11.615846 -9.315782 0.000000 0.000000 0.000000 7.125000 0.000000 0.000000 16.308808 20.784623 9.860728
8.105200 12.323671 1.933877 -76.104362 -84.467311 79.384625 0.000000 0.000000 0.000000 -5.433294 28.425142 -53.105919 20.440025 19.995397 91.286468 3.458407 -12.730181 -33.671037 0.008999 0.612279 1.682444 0.000000 0.000000 0.000000 13.781503 -32.535215 -54.205516 -19.390138 -19.991104 88.216504 -3.489426 6.097501 -34.160992 -0.066304 1.661050 -4.569836 0.239631 0.893409 6.940910 0.695108 1.235967 -5.322235 0.422166 0.588839 -9.561755 -1.082886 -3.799445 -17.991742 2.770796 -6.212764 25.256395 0.237448 -2.701304 11.313369 0.000000 0.000000 0.000000 91.636114 3.095591 -34.099784 18.026883 -28.191551 4.561945 1.132368 -11.713369 -8.474980 0.000000 0.000000 0.000000 -7.125000 0.000000 0.000000 -21.728520 37.571579 -4.216417 0.000000 0.000000 0.000000 -78.772981 3.957031 29.048340 -16.434081 -26.105607 -3.835003 -4.139347 -12.223532 -8.992211 0.000000 0.000000 0.000000 7.125000 0.000000 0.000000 16.251047 21.093406 9.703990
8.102606 12.358150 1.957568 -73.723469 -84.512249 76.940370 0.000000 0.000000 0.000000 -5.699366 28.304233 -52.861258 20.297511 19.997897 90.869917 3.415970 -12.807389 -33.460443 0.009699 0.635563 1.746398 0.000000 0.000000 0.000000 13.558701 -32.435151 -53.792124 -19.219550 -19.985409 87.717531 -3.458942 5.876070 -34.033283 -0.059910 1.579827 -4.345849 0.387379 0.960939 6.967995 0.694497 1.346289 -5.164398 0.322237 0.634758 -9.401619 -0.776495 -3.375115 -18.242371 2.743239 -5.739595 25.821749 0.238440 -2.453055 11.557244 0.000000 0.000000 0.000000 91.408298 2.944081 -33.985755 18.048977 -28.219798 4.572337 1.194720 -11.687678 -8.465017 0.000000 0.000000 0.000000 -7.125000 0.000000 0.000000 -21.675421 37.566909 -4.207478 0.000000 0.000000 0.000000 -78.618896 4.064093 28.826210 -16.839942 -26.646227 -4.015305 -4.105647 -12.739301 -8.621424 0.000000 0.000000 0.000000 7.125000 0.000000 0.000000 16.312324 21.450890 9.605224
